<svg width="64" height="64" viewBox="0 0 64 64" fill="none" xmlns="http://www.w3.org/2000/svg">
<path d="M0 32.0001C0 45.9735 8.96 57.8135 21.3333 62.1868V1.81348C8.96 6.18681 0 18.0268 0 32.0001Z" fill="#002654"/>
<path d="M63.9998 32.0001C63.9998 18.0268 55.1465 6.18681 42.6665 1.81348V62.1868C55.1465 57.8135 63.9998 45.9735 63.9998 32.0001Z" fill="#CE1126"/>
<path d="M21.3335 62.1867C24.6402 63.36 28.2668 64 32.0002 64C35.7335 64 39.3602 63.36 42.6668 62.1867V1.81333C39.3602 0.64 35.8402 0 32.0002 0C28.1602 0 24.6402 0.64 21.3335 1.81333V62.1867Z" fill="white"/>
</svg>
