<svg width="64" height="64" viewBox="0 0 64 64" fill="none" xmlns="http://www.w3.org/2000/svg">
<path d="M32.0006 0C18.0273 0 6.1873 8.96 1.81396 21.3333H62.1873C57.814 8.96 45.974 0 32.0006 0Z" fill="#0F0F0F"/>
<path d="M32.0006 63.9998C45.974 63.9998 57.814 55.1465 62.1873 42.6665H1.81396C6.1873 55.1465 18.0273 63.9998 32.0006 63.9998Z" fill="#FFCD05"/>
<path d="M1.81333 21.3335C0.64 24.6402 0 28.2668 0 32.0002C0 35.7335 0.64 39.3602 1.81333 42.6668H62.1867C63.36 39.3602 64 35.7335 64 32.0002C64 28.2668 63.36 24.6402 62.1867 21.3335H1.81333Z" fill="#ED1F24"/>
</svg>
