<svg width="59" height="35" viewBox="0 0 59 35" fill="none" xmlns="http://www.w3.org/2000/svg">
<path d="M27.6991 34.2037C26.5215 33.8691 25.3261 33.6009 24.1185 33.4005C22.2609 33.1233 20.4214 32.8623 16.6239 33.1374C13.8807 33.3382 11.1575 33.7579 8.41836 34.0009C5.79054 34.2481 3.15121 34.352 0.51209 34.3122C0.343889 34.2709 0.168202 34.2709 0 34.3122C0.0670755 34.3806 0.148 34.434 0.237355 34.4686C0.32671 34.5032 0.422433 34.5184 0.518115 34.513C1.06635 34.5271 1.6166 34.5512 2.16685 34.5492C5.37996 34.5492 8.58103 34.2298 11.7741 33.8704C14.7522 33.537 17.7223 33.1535 20.7366 33.278C23.3006 33.3534 25.8352 33.8451 28.2413 34.7339C28.643 34.911 29.0775 35.0016 29.5166 34.9999C29.9556 34.9982 30.3894 34.9041 30.7897 34.7239C32.4314 34.0737 34.1532 33.6475 35.9086 33.4567C38.1301 33.1941 40.3723 33.153 42.6019 33.3342C45.1644 33.535 47.7148 33.8704 50.2712 34.1375C52.9156 34.4371 55.5768 34.5646 58.2377 34.519C58.3863 34.519 58.6554 34.5632 58.6394 34.4106C58.6273 34.2098 58.3663 34.3062 58.2176 34.3082C56.4524 34.3343 54.6913 34.2519 52.9321 34.1435C50.229 33.9788 47.5501 33.5712 44.8551 33.3282C42.6822 33.1273 40.5114 32.9546 38.3305 33.039C36.5472 33.1093 34.5008 33.2197 32.5408 33.8302C32.2999 33.9065 31.4403 34.1415 31.0246 34.278C30.6089 34.4146 30.3579 34.7198 29.4 34.7098C28.9964 34.7058 28.0304 34.3403 27.6991 34.2037Z" fill="url(#paint0_linear_28_162)"/>
<path d="M30.9705 33.8886C31.0167 34.0553 32.7437 33.4548 32.9044 33.3906C35.2319 32.4587 38.8788 32.4266 42.7747 32.6134C45.4677 32.7419 48.1546 32.9528 50.8396 33.1757C52.5867 33.3203 54.3379 33.3604 56.089 33.4428C56.2135 33.4428 56.3842 33.5271 56.4525 33.3685C56.5208 33.2098 56.3481 33.1395 56.2517 33.0451C55.6914 32.4427 55.1592 31.8302 54.9624 30.9908C54.8299 30.4204 54.8078 30.4244 54.2094 30.3602C54.1411 30.3602 54.0748 30.3501 54.0085 30.3441C51.6911 30.1855 49.3897 29.9083 47.0582 29.8059C43.8912 29.6653 40.7263 29.5469 37.5734 29.9846C35.8882 30.1943 34.2447 30.6595 32.6996 31.3643C32.6596 31.3922 32.6125 31.4081 32.5637 31.4103C32.515 31.4124 32.4667 31.4006 32.4244 31.3763C32.6112 31.2739 32.7558 31.1896 32.9044 31.1153C35.005 30.061 37.2642 29.577 39.5756 29.3581C42.6582 29.0669 45.7468 29.1713 48.8314 29.3762C50.2211 29.4665 51.6087 29.5951 52.9924 29.7477C53.1008 29.7597 53.2354 29.7979 53.2916 29.6694C53.3478 29.5408 53.2314 29.4685 53.145 29.4003C52.9698 29.2748 52.8502 29.0861 52.8117 28.8741C52.7655 28.6318 52.7413 28.3858 52.7394 28.1391C52.7394 27.611 52.7253 27.6029 52.1851 27.5808C50.4902 27.5166 48.7953 27.4342 47.1003 27.4001C43.7025 27.3318 40.3146 27.4142 37.0031 28.3138C35.2841 28.7797 33.6233 29.3882 32.1533 30.4305C31.9364 30.5831 31.7135 30.7257 31.4926 30.8723C31.9228 30.3963 32.4241 29.9898 32.9787 29.6674C35.0565 28.4861 37.3298 27.6882 39.6901 27.3117C42.2551 26.9088 44.8534 26.7588 47.4478 26.8639C48.1546 26.886 48.8535 26.896 49.5704 26.9061C49.7271 26.9061 49.9319 26.9061 49.8696 26.6691C49.7271 26.1229 49.7913 25.5726 49.7933 25.0264C49.7933 24.7091 49.6949 24.5846 49.3716 24.5826C45.6765 24.5645 42.0075 24.7573 38.435 25.8217C36.5219 26.372 34.7061 27.2168 33.053 28.3259C32.2894 28.8787 31.5697 29.4896 30.9002 30.1533C30.8998 30.1054 30.9045 30.0576 30.9143 30.0108C30.9489 29.9526 30.9886 29.8975 31.0327 29.8461C31.7637 29.0589 32.4947 28.2757 33.3823 27.6371C36.7782 25.2071 40.6119 24.0725 44.7226 23.697C45.8874 23.5905 47.0541 23.5644 48.2189 23.4962C48.494 23.4781 48.5844 23.3737 48.5804 23.0945C48.5683 22.2752 48.5804 21.4558 48.5804 20.6365C48.5804 20.1806 48.5523 20.1405 48.1064 20.2128C47.2429 20.3533 46.3794 20.4939 45.5179 20.6566C43.2828 21.0763 41.0878 21.6125 39.0053 22.5563C36.1034 23.8717 33.5089 25.5967 31.4866 28.0989C30.7235 29.0428 30.0226 30.0308 29.6431 31.2076C29.617 31.288 29.5848 31.3924 29.4764 31.3964C29.368 31.4004 29.3298 31.3 29.2896 31.2217C28.9864 30.6474 28.6872 30.065 28.3458 29.5147C26.8959 27.2394 24.8716 25.5927 22.5561 24.2934C20.344 23.0208 17.9458 22.1033 15.4491 21.5743C13.7301 21.2189 11.993 21.014 10.2559 20.7992C9.95269 20.761 9.84023 20.8514 9.85429 21.1787C9.86835 21.8655 9.98482 22.5423 9.99888 23.2271C9.99888 23.697 10.035 23.713 10.5009 23.7311C12.1075 23.7954 13.7301 23.8396 15.3367 24.0645C17.1188 24.2884 18.8722 24.6996 20.568 25.2915C23.022 26.1851 25.2491 27.4563 27.1368 29.2858C27.5466 29.6807 27.924 30.1078 28.2655 30.563L27.2854 29.6674C25.0242 27.5929 22.3132 26.4121 19.3731 25.6811C17.6777 25.2772 15.9512 25.0166 14.2121 24.9019C12.5774 24.7774 10.9387 24.7192 9.29601 24.7392C9.02089 24.7392 8.91847 24.8517 8.93253 25.1288C8.95261 25.5305 8.95462 25.9321 8.94257 26.3337C8.92449 27.0065 8.91646 27.0105 9.59925 26.9884C13.214 26.88 16.8067 26.8559 20.3612 27.6451C22.33 28.0641 24.2145 28.8109 25.9359 29.8541C26.3229 30.0773 26.681 30.3471 27.0023 30.6574C26.862 30.6332 26.7316 30.569 26.6268 30.4726C25.5556 29.7486 24.3891 29.1768 23.1606 28.7737C20.6725 27.9283 18.0959 27.5989 15.4813 27.4824C12.5051 27.3519 9.53097 27.5146 6.55683 27.621C6.0849 27.6371 6.07084 27.6712 6.07687 28.1271C6.07687 28.6572 6.109 29.1994 5.56076 29.5328C5.5421 29.5405 5.52516 29.5518 5.51096 29.5661C5.49676 29.5804 5.48558 29.5975 5.47809 29.6162C5.4706 29.6349 5.46694 29.655 5.46735 29.6752C5.46775 29.6953 5.4722 29.7152 5.48043 29.7336C5.53064 29.834 5.63507 29.816 5.72142 29.8079C6.29175 29.7577 6.86007 29.7035 7.43039 29.6513C10.9106 29.336 14.3928 29.0769 17.8911 29.3159C19.9816 29.4585 22.0481 29.7176 24.0402 30.4003C24.8093 30.6674 25.5865 30.9185 26.2874 31.3924C26.2399 31.4038 26.1906 31.4052 26.1425 31.3965C26.0945 31.3879 26.0488 31.3694 26.0082 31.3422C25.3048 31.0459 24.5854 30.7892 23.8534 30.573C22.1395 30.1084 20.3785 29.8389 18.604 29.7698C15.5114 29.6071 12.4288 29.7899 9.34822 30.0268C7.75773 30.1473 6.17125 30.306 4.58277 30.4285C4.03252 30.4726 4.02047 30.4526 3.88392 30.9767C3.67983 31.7422 3.24429 32.4261 2.63683 32.9347C2.51633 33.0371 2.28539 33.1235 2.36572 33.3122C2.44605 33.501 2.66896 33.4046 2.82961 33.4046C6.12507 33.4287 9.40044 33.0873 12.6798 32.8443C15.415 32.6435 18.1481 32.4768 20.8913 32.6435C23.0898 32.7585 25.2671 33.1326 27.3778 33.7581C27.7995 33.8866 27.8297 33.8906 27.8076 33.4488C27.7989 33.1733 27.8572 32.8998 27.9776 32.6518C28.0979 32.4038 28.2766 32.1887 28.4984 32.025C28.7421 31.851 29.0332 31.7558 29.3327 31.7522C29.6321 31.7486 29.9254 31.8368 30.1732 32.0049C30.6652 32.3865 30.9986 32.9809 30.9986 33.4649C30.9806 33.6054 30.9712 33.7469 30.9705 33.8886Z" fill="#F7F1F7"/>
<path d="M12.7942 18.9134C12.7641 18.2708 12.7079 17.6944 12.7119 17.1181C12.7259 15.4877 12.959 13.8667 13.4047 12.2984C13.9011 10.5385 14.6797 8.87078 15.7101 7.36023C17.142 5.2235 19.0512 3.44904 21.2869 2.17707C24.6697 0.279423 28.599 -0.406425 32.4246 0.233008C36.2503 0.87244 39.7429 2.79883 42.3248 5.69342C44.1668 7.75173 45.4866 10.2231 46.1725 12.8988C46.6765 14.7966 46.7749 16.7305 46.6424 18.6804C46.6424 18.819 46.6424 19.066 46.5139 19.058C46.313 19.0459 46.3974 18.8049 46.3974 18.6684C46.4272 16.9796 46.2341 15.2942 45.823 13.6559C45.1967 11.2576 44.0443 9.02876 42.4493 7.13129C40.3407 4.6601 37.5686 2.84424 34.4609 1.89835C31.3531 0.95246 28.0395 0.916076 24.9117 1.7935C21.2969 2.82572 18.3308 4.82789 16.1037 7.88436C14.5055 10.0965 13.4821 12.6712 13.1256 15.377C12.979 16.4031 12.9589 17.4333 12.9027 18.4656C12.9273 18.6233 12.8883 18.7844 12.7942 18.9134Z" fill="#F7F1F7"/>
<path d="M43.4132 17.4334C43.5216 16.4654 43.3329 15.6682 43.1361 14.8709C43.0839 14.6581 42.9955 14.4693 42.6943 14.5597C42.6045 14.5801 42.5105 14.5716 42.4258 14.5356C42.3411 14.4995 42.2699 14.4377 42.2223 14.3588C41.7665 13.8166 41.3006 13.2804 41.3488 12.4972C41.3567 12.3603 41.3347 12.2232 41.2845 12.0956C41.1994 11.8939 41.1591 11.6762 41.1664 11.4574C41.1737 11.2386 41.2284 11.024 41.3267 10.8284C41.4036 10.6358 41.4086 10.422 41.3407 10.226C41.306 10.1488 41.2908 10.0644 41.2964 9.97996C41.302 9.89557 41.3283 9.81385 41.3729 9.74199C41.4592 9.63354 41.3628 9.58735 41.3126 9.51908C41.1439 9.29416 40.9753 9.07125 40.8166 8.8403C40.7102 8.68567 40.662 8.55313 40.915 8.45674C41.1379 8.37039 41.168 7.9828 41.0014 7.79002C40.9612 7.74584 40.9291 7.76592 40.8869 7.77194C40.6839 7.79945 40.4775 7.762 40.2971 7.66496C40.1167 7.56791 39.9717 7.41626 39.8828 7.23174C39.8627 7.19157 39.8225 7.13133 39.8366 7.10924C40.0696 6.7558 39.7262 6.60116 39.5896 6.37424C39.5534 6.31399 39.455 6.24973 39.5354 6.17342C39.6157 6.09711 39.688 6.18346 39.7362 6.22764C39.925 6.38629 40.1097 6.55096 40.2864 6.72366C40.6382 7.08412 41.0146 7.41963 41.413 7.72776C41.7042 7.94264 41.8368 8.27199 41.9894 8.58326C42.0336 8.67162 42.0396 8.80014 41.903 8.83026C41.3829 8.93871 41.8207 9.26002 41.7765 9.47088C41.7323 9.68174 41.9773 9.57129 42.0818 9.55321C42.1589 9.54012 42.2381 9.55267 42.3074 9.58895C42.3767 9.62522 42.4322 9.68321 42.4653 9.75403C44.1944 12.202 44.2908 14.9071 43.7345 17.7185C43.7044 17.8732 43.6823 18.0278 43.6401 18.1804C43.62 18.2588 43.604 18.3813 43.4835 18.3592C43.363 18.3371 43.4152 18.2306 43.4152 18.1583C43.4112 17.8732 43.4132 17.59 43.4132 17.4334Z" fill="url(#paint1_linear_28_162)"/>
<path d="M31.3097 12.4189C31.2454 12.3968 30.9844 12.5534 30.9763 12.3184C30.9763 12.1297 31.2253 12.1036 31.4081 12.1056C31.8096 12.1231 32.2026 12.2265 32.5608 12.4088C32.6532 12.451 32.7496 12.4952 32.7616 12.6096C32.7737 12.7241 32.6873 12.7382 32.615 12.7683C32.5005 12.8145 32.3459 12.8767 32.2776 12.7542C32.0648 12.3847 31.7113 12.465 31.3097 12.4189Z" fill="url(#paint2_linear_28_162)"/>
<path d="M33.4867 12.9229C33.3943 12.9109 33.318 12.9028 33.2417 12.8888C33.1292 12.8667 33.0147 12.8366 33.0248 12.6879C33.0348 12.5393 33.1553 12.5293 33.2698 12.5293C33.3473 12.5314 33.4245 12.5394 33.5007 12.5534C33.6513 12.5795 33.8743 12.5996 33.8622 12.7703C33.8502 12.941 33.6092 12.8727 33.4867 12.9229Z" fill="url(#paint3_linear_28_162)"/>
<path d="M35.9667 5.06689C36.1314 5.10103 36.3302 5.14923 36.3342 5.36009C36.3342 5.50468 36.1675 5.56091 36.0309 5.56091C35.8944 5.56091 35.6916 5.48058 35.6755 5.27976C35.6594 5.07894 35.81 5.07292 35.9667 5.06689Z" fill="url(#paint4_linear_28_162)"/>
<path d="M38.9871 16.2104C38.6135 16.114 38.2983 15.8609 37.9408 15.8087C37.7536 15.7833 37.5741 15.7179 37.4144 15.6171C37.2547 15.5163 37.1185 15.3823 37.015 15.2243C36.8403 14.9773 36.6395 14.7263 36.2961 14.7223C35.9566 14.71 35.6353 14.566 35.4004 14.3206C35.3252 14.245 35.2357 14.1851 35.1371 14.1444C35.0385 14.1037 34.9328 14.0831 34.8261 14.0837C34.404 14.0753 33.9836 14.0262 33.571 13.9371C33.3887 13.8983 33.2003 13.8977 33.0178 13.9354C32.8353 13.973 32.6626 14.0482 32.5106 14.156C32.2364 14.3276 31.9184 14.4162 31.5949 14.411C31.123 14.4271 31.0567 14.3688 31.0547 13.913C31.0527 13.4571 31.0547 13.4391 30.5807 13.421C30.2494 13.4089 30.1791 13.2945 30.3297 13.0013C30.3693 12.9337 30.4157 12.8705 30.4683 12.8125C30.5787 12.682 30.5446 12.5916 30.396 12.5253C30.3277 12.4907 30.2532 12.4701 30.1768 12.4646C30.1005 12.4591 30.0238 12.4689 29.9512 12.4934C29.8787 12.5179 29.8118 12.5566 29.7543 12.6073C29.6969 12.6579 29.6502 12.7195 29.6168 12.7884C29.5809 12.8816 29.5134 12.9593 29.426 13.0078C29.3386 13.0562 29.237 13.0724 29.1389 13.0535C28.9984 13.0349 28.8669 12.974 28.7618 12.879C28.6567 12.7839 28.583 12.6592 28.5505 12.5213C28.5099 12.3606 28.5074 12.1926 28.5434 12.0308C28.5793 11.869 28.6526 11.7179 28.7574 11.5895C28.8622 11.461 28.9956 11.3589 29.1469 11.2913C29.2982 11.2236 29.4633 11.1924 29.6289 11.1999C29.8751 11.2088 30.1212 11.1783 30.3578 11.1095C30.4962 11.0542 30.6502 11.0521 30.79 11.1036C30.9299 11.1552 31.0456 11.2568 31.1149 11.3887C31.1683 11.4865 31.2166 11.587 31.2595 11.6899C31.3137 11.8024 31.388 11.8907 31.5226 11.8365C31.6571 11.7823 31.6812 11.6859 31.6511 11.5654C31.6218 11.4459 31.5808 11.3295 31.5286 11.218C31.4556 11.1031 31.4281 10.9651 31.4515 10.831C31.4749 10.6969 31.5475 10.5764 31.6551 10.493C31.772 10.4039 31.8683 10.2907 31.9376 10.1611C32.0068 10.0316 32.0475 9.8886 32.0568 9.74196C32.0677 9.66915 32.0965 9.60019 32.1407 9.54129C32.1848 9.4824 32.243 9.43542 32.3098 9.40458C32.4798 9.29372 32.6276 9.15205 32.7456 8.98688C32.7932 8.91111 32.8626 8.85143 32.9446 8.81562C33.0266 8.7798 33.1175 8.7695 33.2055 8.78606C33.3062 8.80258 33.4096 8.7868 33.5009 8.741C33.5922 8.69519 33.6666 8.62169 33.7135 8.53101C33.7894 8.38098 33.9093 8.25771 34.0572 8.17768C34.205 8.09765 34.3738 8.06468 34.5409 8.08319C34.6674 8.09724 34.7819 8.02896 34.6654 7.92052C34.326 7.60122 34.1855 7.05298 33.6232 6.9847C33.3059 6.94655 33.0609 6.72564 32.7536 6.64532C32.5548 6.5684 32.3676 6.46432 32.1973 6.33605C32.123 6.29388 32.0708 6.2256 32.119 6.13523C32.1294 6.11917 32.1428 6.10536 32.1586 6.0946C32.1744 6.08385 32.1922 6.07638 32.2109 6.07263C32.2297 6.06888 32.249 6.06894 32.2677 6.0728C32.2864 6.07665 32.3041 6.08423 32.3198 6.09507C32.4423 6.17138 32.5548 6.26577 32.6793 6.34007C32.8339 6.43245 32.9524 6.3963 32.9444 6.20151C32.9364 6.00671 32.8279 5.79987 32.9906 5.59905C33.0328 5.54884 32.9444 5.45847 32.8681 5.42433C32.7918 5.39019 32.6934 5.37814 32.6351 5.29982C32.2656 4.79978 31.7294 4.61905 31.127 4.57286C31.0386 4.57286 30.9382 4.57286 30.9262 4.44634C31.0778 4.14139 31.2936 3.87285 31.5587 3.65913C31.378 4.04872 31.6471 4.0929 31.8901 4.18527C32.4709 4.37366 32.968 4.75854 33.2958 5.27372C33.6151 5.81392 34.1473 6.077 34.7016 6.31999C34.9024 6.40433 35.0148 6.31999 34.9988 6.11917C34.9614 5.83814 35.0165 5.55258 35.1556 5.30555C35.2946 5.05851 35.5103 4.86338 35.7699 4.74958C36.0109 4.62507 35.9386 4.49253 35.7579 4.38208C35.602 4.29287 35.4621 4.17815 35.3442 4.04269C35.0751 3.72741 34.806 3.41212 34.5409 3.09081C34.4666 3.00044 34.4003 2.91208 34.2738 2.91409C33.583 2.93216 32.8781 2.79761 32.2094 3.0888C32.1459 3.11485 32.0765 3.12318 32.0086 3.1129C31.0687 2.97031 30.2896 3.32376 29.5746 3.89007C29.4943 3.95634 29.5204 3.98245 29.5746 4.04671C29.7273 4.26159 29.4803 4.24753 29.4019 4.31581C29.3832 4.34177 29.357 4.36137 29.3268 4.37199C29.2967 4.38261 29.2639 4.38373 29.2331 4.3752C29.2023 4.36667 29.1748 4.3489 29.1543 4.32428C29.1339 4.29966 29.1215 4.26937 29.1188 4.23749C29.0405 3.88204 28.7914 3.91818 28.5806 4.03667C28.3223 4.16997 28.0268 4.21309 27.7412 4.15917C27.681 4.14147 27.617 4.14113 27.5566 4.15818C27.4962 4.17524 27.4418 4.20899 27.3998 4.25556C27.3034 4.39011 27.5203 4.42425 27.5062 4.53671C27.4138 4.57888 27.2532 4.61101 27.2471 4.66323C27.1789 5.23155 26.7371 4.97851 26.4439 5.04478C26.3447 5.06328 26.2473 5.09015 26.1527 5.12511C26.0245 5.17397 25.8845 5.18307 25.751 5.15122C25.4096 5.08696 25.0622 5.04478 24.7248 4.96245C24.0079 4.78974 23.5199 5.28577 22.9596 5.55286C22.9495 5.55756 22.9406 5.56454 22.9337 5.57325C22.9267 5.58196 22.9218 5.59216 22.9195 5.60306C22.9195 5.95249 22.6243 6.08503 22.4275 6.28384C22.2307 6.48265 22.2126 6.62523 22.4275 6.7879C22.568 6.89634 22.5198 6.97265 22.4034 7.04093C22.2487 7.13331 22.0881 7.21364 21.9335 7.302C21.8853 7.33011 21.8351 7.37028 21.8612 7.43655C21.8873 7.50282 21.9475 7.50483 22.0017 7.49278C22.0789 7.47799 22.1543 7.45511 22.2266 7.4245C22.6564 7.23573 23.0982 7.07507 23.5159 6.84814C24.0461 6.55696 24.8373 6.97466 24.9216 7.5711C24.9415 7.79328 25.0299 8.00381 25.1747 8.17356C25.2497 8.25237 25.3 8.35144 25.3192 8.45853C25.3385 8.56561 25.3259 8.67599 25.2831 8.77601C25.2189 8.96679 25.1405 9.15556 25.0923 9.35036C25.02 9.59298 25.0048 9.84907 25.048 10.0985C25.0912 10.348 25.1916 10.5841 25.3414 10.7882C25.4717 10.9553 25.571 11.1444 25.6346 11.3465C25.7309 11.6709 25.9022 11.9681 26.1346 12.214C26.1848 12.2683 26.2591 12.3486 26.3354 12.2904C26.4117 12.2321 26.3475 12.1458 26.2973 12.0895C26.0982 11.8592 25.9828 11.5683 25.9699 11.2642C26.1868 11.8325 26.7732 12.1679 26.9078 12.7864C26.927 12.8514 26.9601 12.9115 27.0048 12.9625C27.0495 13.0135 27.1048 13.0541 27.1668 13.0816C27.3516 13.188 27.5383 13.2925 27.7251 13.3929C28.0866 13.5937 28.446 13.7704 28.8738 13.5937C28.9226 13.5776 28.9748 13.5742 29.0253 13.5837C29.0759 13.5931 29.1232 13.6152 29.163 13.6479C29.4335 13.8296 29.734 13.9622 30.0506 14.0395C30.3292 14.1072 30.5709 14.2799 30.7253 14.5215C30.7775 14.6146 30.8573 14.6892 30.9537 14.7349C31.0502 14.7806 31.1585 14.7951 31.2635 14.7765C31.8379 14.7303 31.8941 14.7986 31.8298 15.379C31.8188 15.4914 31.7666 15.5959 31.6833 15.6722C31.6217 15.7217 31.5742 15.7865 31.5456 15.8602C31.5171 15.9339 31.5084 16.0138 31.5206 16.0919C31.5381 16.2155 31.5079 16.3411 31.4362 16.4433C31.3723 16.5306 31.3439 16.639 31.357 16.7464C31.37 16.8538 31.4235 16.9523 31.5065 17.0217C31.7269 17.2498 31.8936 17.5242 31.9945 17.825C32.1053 18.1087 32.2839 18.3611 32.5146 18.56C32.7481 18.7533 33.0036 18.9185 33.2758 19.052C33.39 19.1002 33.4838 19.1867 33.541 19.2967C33.5982 19.4067 33.6152 19.5332 33.589 19.6544C33.4967 20.2308 33.4203 20.8091 33.3159 21.3835C33.1352 22.3434 32.9344 23.2953 32.9344 24.2994C32.9322 24.5439 33.0193 24.7809 33.1794 24.9658C33.3395 25.1506 33.5615 25.2707 33.8039 25.3035C33.8903 25.3035 33.9887 25.3537 34.0489 25.2553C34.1092 25.1569 34.0268 25.0806 33.9726 25.0183C33.7718 24.7814 33.8561 24.5946 33.9726 24.3275C34.1188 23.9293 34.3151 23.5514 34.557 23.2029C34.5679 23.1826 34.5728 23.1596 34.571 23.1366C34.571 22.8675 34.7297 22.735 34.9566 22.6507C35.1233 22.5844 35.294 22.5081 35.3442 22.3073C35.3507 22.2683 35.365 22.231 35.386 22.1975C35.4071 22.1641 35.4345 22.1351 35.4668 22.1123C35.4991 22.0895 35.5356 22.0734 35.5742 22.0648C35.6128 22.0562 35.6527 22.0553 35.6916 22.0623C35.8583 22.0623 36.027 22.0442 36.0732 21.8614C36.1601 21.6072 36.31 21.3792 36.5089 21.1987C36.832 20.8699 37.1084 20.4983 37.3303 20.0942C37.4413 19.8457 37.6401 19.6469 37.8886 19.5359C38.0721 19.4507 38.2348 19.3264 38.3653 19.1717C38.4957 19.017 38.5907 18.8356 38.6437 18.6403C38.8324 18.078 38.9288 17.4876 39.2341 16.9614C39.3606 16.7184 39.218 16.2666 38.9871 16.2104ZM33.1352 8.00085C33.348 7.89843 33.5629 7.80003 33.7818 7.71569C33.8621 7.68355 33.9385 7.71569 33.9505 7.82815C33.8621 7.98478 33.82 8.1856 33.6252 8.27196C33.4304 8.35831 33.2798 8.23581 33.1231 8.15548C33.0408 8.10929 33.0729 8.03298 33.1352 8.00085ZM29.5204 6.44048C29.6294 6.30027 29.7783 6.19641 29.9476 6.14263C30.1168 6.08884 30.2984 6.08767 30.4683 6.13925C30.5594 6.1802 30.6533 6.21443 30.7494 6.24167C30.7837 6.2583 30.8218 6.26535 30.8597 6.26208C30.8976 6.25882 30.9339 6.24536 30.9648 6.22312C30.9957 6.20089 31.0199 6.17071 31.0351 6.13579C31.0502 6.10088 31.0556 6.06252 31.0507 6.02478C31.0267 5.79444 31.0743 5.56229 31.1872 5.36007C31.2394 5.28978 31.1631 5.09298 31.3439 5.15925C31.5246 5.22552 31.6893 5.31991 31.633 5.54884C31.5711 5.80796 31.4946 6.0634 31.4041 6.31396C31.3556 6.43489 31.3333 6.56477 31.3388 6.69497C31.3444 6.82516 31.3776 6.95268 31.4362 7.06905C31.5688 7.3522 31.4603 7.51085 31.133 7.53093C30.9884 7.58716 30.892 7.55905 30.8117 7.38032C30.7133 7.16544 30.4643 7.15339 30.2655 7.09314C30.0515 7.03202 29.8427 6.95413 29.6409 6.86019C29.5985 6.84875 29.5598 6.82655 29.5285 6.79574C29.4972 6.76493 29.4744 6.72656 29.4622 6.68434C29.4501 6.64212 29.4491 6.59749 29.4593 6.55477C29.4695 6.51204 29.4905 6.47268 29.5204 6.44048ZM29.1911 4.87007C29.2517 4.87845 29.3072 4.90888 29.3468 4.95556C29.3865 5.00224 29.4075 5.06188 29.406 5.1231C29.406 5.2456 29.3156 5.26167 29.2272 5.2697C29.0264 5.28778 29.0987 5.1472 29.0987 5.04679C29.0987 4.94638 29.0324 4.84396 29.1971 4.87007H29.1911ZM28.7171 4.30376C28.8196 4.2656 28.8758 4.33388 28.9581 4.42023C28.8276 4.49253 28.7573 4.46441 28.6951 4.38609C28.692 4.3716 28.6924 4.35659 28.6963 4.34229C28.7001 4.32799 28.7073 4.31479 28.7171 4.30376Z" fill="url(#paint5_linear_28_162)"/>
<path d="M40.5353 7.51492C40.3566 7.46472 40.2843 7.30004 40.2261 7.11328L40.5916 7.44664L40.5353 7.51492Z" fill="url(#paint6_linear_28_162)"/>
<defs>
<linearGradient id="paint0_linear_28_162" x1="-3.27677e-07" y1="34.0085" x2="58.6401" y2="34.0085" gradientUnits="userSpaceOnUse">
<stop stop-color="#FA7BC4"/>
<stop offset="1" stop-color="#8F35B8"/>
</linearGradient>
<linearGradient id="paint1_linear_28_162" x1="39.5046" y1="12.2524" x2="44.037" y2="12.2524" gradientUnits="userSpaceOnUse">
<stop stop-color="#FA7BC4"/>
<stop offset="1" stop-color="#8F35B8"/>
</linearGradient>
<linearGradient id="paint2_linear_28_162" x1="30.9763" y1="12.4656" x2="32.7627" y2="12.4656" gradientUnits="userSpaceOnUse">
<stop stop-color="#FA7BC4"/>
<stop offset="1" stop-color="#8F35B8"/>
</linearGradient>
<linearGradient id="paint3_linear_28_162" x1="33.0242" y1="12.7261" x2="33.8627" y2="12.7261" gradientUnits="userSpaceOnUse">
<stop stop-color="#FA7BC4"/>
<stop offset="1" stop-color="#8F35B8"/>
</linearGradient>
<linearGradient id="paint4_linear_28_162" x1="35.6743" y1="5.3139" x2="36.3342" y2="5.3139" gradientUnits="userSpaceOnUse">
<stop stop-color="#FA7BC4"/>
<stop offset="1" stop-color="#8F35B8"/>
</linearGradient>
<linearGradient id="paint5_linear_28_162" x1="21.854" y1="14.1074" x2="39.2814" y2="14.1074" gradientUnits="userSpaceOnUse">
<stop stop-color="#FA7BC4"/>
<stop offset="1" stop-color="#8F35B8"/>
</linearGradient>
<linearGradient id="paint6_linear_28_162" x1="40.2261" y1="7.3141" x2="40.5916" y2="7.3141" gradientUnits="userSpaceOnUse">
<stop stop-color="#FA7BC4"/>
<stop offset="1" stop-color="#8F35B8"/>
</linearGradient>
</defs>
</svg>
