<svg width="64" height="64" viewBox="0 0 64 64" fill="none" xmlns="http://www.w3.org/2000/svg">
<path d="M16 59.7333V4.2666C6.4 9.81327 0 20.1599 0 31.9999C0 43.8399 6.4 54.1866 16 59.7333Z" fill="#006600"/>
<path d="M32 0C26.1333 0 20.6933 1.6 16 4.26667V59.7333C20.6933 62.5067 26.1333 64 32 64C49.7067 64 64 49.7067 64 32C64 14.2933 49.7067 0 32 0Z" fill="#D52B1E"/>
<path d="M15.9997 19.1997C8.95971 19.1997 3.19971 24.9597 3.19971 31.9997C3.19971 39.0397 8.95971 44.7997 15.9997 44.7997C23.0397 44.7997 28.7997 39.0397 28.7997 31.9997C28.7997 24.9597 23.0397 19.1997 15.9997 19.1997ZM15.9997 43.1997C9.81304 43.1997 4.79971 38.1864 4.79971 31.9997C4.79971 25.813 9.81304 20.7997 15.9997 20.7997C22.1864 20.7997 27.1997 25.813 27.1997 31.9997C27.1997 38.1864 22.1864 43.1997 15.9997 43.1997Z" fill="#FFE62E"/>
<path d="M20.373 44.4796C20.1597 44.693 19.8397 44.693 19.6264 44.4796L5.01303 25.173C4.79969 24.9596 4.79969 24.6396 5.01303 24.4263L5.33303 24.1063C5.54636 23.893 5.86636 23.893 6.07969 24.1063L20.693 43.413C20.9064 43.6263 20.9064 43.9463 20.693 44.1596L20.373 44.4796Z" fill="#FFE62E"/>
<path d="M16.2132 18.6665C16.5332 18.6665 16.7465 18.8798 16.7465 19.1998V44.7998C16.7465 45.1198 16.5332 45.3332 16.2132 45.3332H15.6798C15.3598 45.3332 15.1465 45.1198 15.1465 44.7998V19.1998C15.1465 18.8798 15.3598 18.6665 15.6798 18.6665H16.2132Z" fill="#FFE62E"/>
<path d="M28.693 33.3867L15.9997 31.1467V32.7467L28.4797 34.9867C28.7997 34.9867 29.013 34.8801 29.1197 34.5601L29.2263 34.0267C29.2263 33.8134 29.013 33.4934 28.693 33.3867ZM15.9997 31.0401L5.97299 24.0001C5.75966 23.7867 5.43966 23.8934 5.22632 24.1067L4.90632 24.5334C4.69299 24.7467 4.79966 25.0667 5.01299 25.2801L15.9997 32.9601V31.0401Z" fill="#FFE62E"/>
<path d="M15.5731 29.8664L5.54644 39.8931C5.33311 40.1064 5.33311 40.4264 5.54644 40.6397L5.97311 41.0664C6.18644 41.2797 6.50644 41.2797 6.71978 41.0664L15.5731 32.2131V29.8664ZM15.9998 25.0664L2.66644 31.3597C2.45311 31.4664 2.23978 31.7864 2.45311 32.1064L2.66644 32.6397C2.77311 32.8531 3.09311 33.0664 3.41311 32.8531L15.9998 26.8797V25.0664Z" fill="#FFE62E"/>
<path d="M27.8396 26.8796L15.1463 24.6396V26.2396L27.6263 28.4796C27.9463 28.4796 28.1596 28.373 28.2663 28.053L28.373 27.5196C28.2663 27.1996 28.053 26.8796 27.8396 26.8796ZM15.893 39.3597C15.6796 39.4663 15.4663 39.7863 15.6796 40.1063L15.893 40.6396C15.9996 40.853 16.3196 41.0663 16.6396 40.853L27.3063 35.9463L27.8396 33.9196L15.893 39.3597ZM15.893 35.733L3.94629 31.3596V33.0663L15.893 37.4396V35.733Z" fill="#FFE62E"/>
<path d="M7.57324 39.2529V40.8529L23.3599 41.9196C23.9999 41.4929 24.5332 40.9596 25.0666 40.4263L7.57324 39.2529Z" fill="#FFE62E"/>
<path d="M10.667 26.6665V34.1332C10.667 37.1198 13.0137 39.4665 16.0003 39.4665C18.987 39.4665 21.3337 37.1198 21.3337 34.1332V26.6665H10.667Z" fill="white"/>
<path d="M15.9999 41.5999C11.8399 41.5999 8.5332 38.2932 8.5332 34.1332V24.5332H23.4665V34.1332C23.4665 38.2932 20.1599 41.5999 15.9999 41.5999ZM12.7999 28.7999V34.1332C12.7999 35.9465 14.1865 37.3332 15.9999 37.3332C17.8132 37.3332 19.1999 35.9465 19.1999 34.1332V28.7999H12.7999Z" fill="#D52B1E"/>
<path d="M15.0396 29.2263V30.933C15.0396 31.253 15.2529 31.4663 15.5729 31.4663H16.4262C16.7462 31.4663 16.9596 31.253 16.9596 30.933V29.1196H15.0396V29.2263ZM15.0396 31.893V33.7063C15.0396 34.0263 15.2529 34.2396 15.5729 34.2396H16.4262C16.7462 34.2396 16.9596 34.0263 16.9596 33.7063V31.893H15.0396ZM12.9062 31.893V33.7063C12.9062 34.0263 13.1196 34.2396 13.4396 34.2396H14.2929C14.6129 34.2396 14.8262 34.0263 14.8262 33.7063V31.893H12.9062ZM17.1729 31.893V33.7063C17.1729 34.0263 17.3863 34.2396 17.7063 34.2396H18.5596C18.8796 34.2396 19.0929 34.0263 19.0929 33.7063V31.893H17.1729ZM15.0396 34.453V36.2663C15.0396 36.5863 15.2529 36.7996 15.5729 36.7996H16.4262C16.7462 36.7996 16.9596 36.5863 16.9596 36.2663V34.453H15.0396Z" fill="#0071BC"/>
<path d="M16.0004 33.1737C16.1183 33.1737 16.2138 33.0782 16.2138 32.9604C16.2138 32.8426 16.1183 32.7471 16.0004 32.7471C15.8826 32.7471 15.7871 32.8426 15.7871 32.9604C15.7871 33.0782 15.8826 33.1737 16.0004 33.1737Z" fill="white"/>
<path d="M15.5747 33.7069C15.6925 33.7069 15.788 33.6114 15.788 33.4936C15.788 33.3758 15.6925 33.2803 15.5747 33.2803C15.4568 33.2803 15.3613 33.3758 15.3613 33.4936C15.3613 33.6114 15.4568 33.7069 15.5747 33.7069Z" fill="white"/>
<path d="M16.4272 33.7069C16.545 33.7069 16.6405 33.6114 16.6405 33.4936C16.6405 33.3758 16.545 33.2803 16.4272 33.2803C16.3094 33.2803 16.2139 33.3758 16.2139 33.4936C16.2139 33.6114 16.3094 33.7069 16.4272 33.7069Z" fill="white"/>
<path d="M15.5747 32.64C15.6925 32.64 15.788 32.5445 15.788 32.4267C15.788 32.3089 15.6925 32.2134 15.5747 32.2134C15.4568 32.2134 15.3613 32.3089 15.3613 32.4267C15.3613 32.5445 15.4568 32.64 15.5747 32.64Z" fill="white"/>
<path d="M16.4272 32.64C16.545 32.64 16.6405 32.5445 16.6405 32.4267C16.6405 32.3089 16.545 32.2134 16.4272 32.2134C16.3094 32.2134 16.2139 32.3089 16.2139 32.4267C16.2139 32.5445 16.3094 32.64 16.4272 32.64Z" fill="white"/>
<path d="M16.0004 30.5067C16.1183 30.5067 16.2138 30.4112 16.2138 30.2934C16.2138 30.1756 16.1183 30.0801 16.0004 30.0801C15.8826 30.0801 15.7871 30.1756 15.7871 30.2934C15.7871 30.4112 15.8826 30.5067 16.0004 30.5067Z" fill="white"/>
<path d="M15.5747 31.0404C15.6925 31.0404 15.788 30.9449 15.788 30.8271C15.788 30.7093 15.6925 30.6138 15.5747 30.6138C15.4568 30.6138 15.3613 30.7093 15.3613 30.8271C15.3613 30.9449 15.4568 31.0404 15.5747 31.0404Z" fill="white"/>
<path d="M16.4272 31.0404C16.545 31.0404 16.6405 30.9449 16.6405 30.8271C16.6405 30.7093 16.545 30.6138 16.4272 30.6138C16.3094 30.6138 16.2139 30.7093 16.2139 30.8271C16.2139 30.9449 16.3094 31.0404 16.4272 31.0404Z" fill="white"/>
<path d="M15.5747 29.9735C15.6925 29.9735 15.788 29.878 15.788 29.7602C15.788 29.6424 15.6925 29.5469 15.5747 29.5469C15.4568 29.5469 15.3613 29.6424 15.3613 29.7602C15.3613 29.878 15.4568 29.9735 15.5747 29.9735Z" fill="white"/>
<path d="M16.4272 29.9735C16.545 29.9735 16.6405 29.878 16.6405 29.7602C16.6405 29.6424 16.545 29.5469 16.4272 29.5469C16.3094 29.5469 16.2139 29.6424 16.2139 29.7602C16.2139 29.878 16.3094 29.9735 16.4272 29.9735Z" fill="white"/>
<path d="M18.1342 33.1737C18.2521 33.1737 18.3476 33.0782 18.3476 32.9604C18.3476 32.8426 18.2521 32.7471 18.1342 32.7471C18.0164 32.7471 17.9209 32.8426 17.9209 32.9604C17.9209 33.0782 18.0164 33.1737 18.1342 33.1737Z" fill="white"/>
<path d="M17.7075 33.7069C17.8253 33.7069 17.9208 33.6114 17.9208 33.4936C17.9208 33.3758 17.8253 33.2803 17.7075 33.2803C17.5897 33.2803 17.4941 33.3758 17.4941 33.4936C17.4941 33.6114 17.5897 33.7069 17.7075 33.7069Z" fill="white"/>
<path d="M18.561 33.7069C18.6788 33.7069 18.7743 33.6114 18.7743 33.4936C18.7743 33.3758 18.6788 33.2803 18.561 33.2803C18.4432 33.2803 18.3477 33.3758 18.3477 33.4936C18.3477 33.6114 18.4432 33.7069 18.561 33.7069Z" fill="white"/>
<path d="M17.7075 32.64C17.8253 32.64 17.9208 32.5445 17.9208 32.4267C17.9208 32.3089 17.8253 32.2134 17.7075 32.2134C17.5897 32.2134 17.4941 32.3089 17.4941 32.4267C17.4941 32.5445 17.5897 32.64 17.7075 32.64Z" fill="white"/>
<path d="M18.561 32.64C18.6788 32.64 18.7743 32.5445 18.7743 32.4267C18.7743 32.3089 18.6788 32.2134 18.561 32.2134C18.4432 32.2134 18.3477 32.3089 18.3477 32.4267C18.3477 32.5445 18.4432 32.64 18.561 32.64Z" fill="white"/>
<path d="M13.8676 33.1737C13.9855 33.1737 14.081 33.0782 14.081 32.9604C14.081 32.8426 13.9855 32.7471 13.8676 32.7471C13.7498 32.7471 13.6543 32.8426 13.6543 32.9604C13.6543 33.0782 13.7498 33.1737 13.8676 33.1737Z" fill="white"/>
<path d="M13.4409 33.7069C13.5587 33.7069 13.6542 33.6114 13.6542 33.4936C13.6542 33.3758 13.5587 33.2803 13.4409 33.2803C13.3231 33.2803 13.2275 33.3758 13.2275 33.4936C13.2275 33.6114 13.3231 33.7069 13.4409 33.7069Z" fill="white"/>
<path d="M14.2944 33.7069C14.4122 33.7069 14.5077 33.6114 14.5077 33.4936C14.5077 33.3758 14.4122 33.2803 14.2944 33.2803C14.1766 33.2803 14.0811 33.3758 14.0811 33.4936C14.0811 33.6114 14.1766 33.7069 14.2944 33.7069Z" fill="white"/>
<path d="M13.4409 32.64C13.5587 32.64 13.6542 32.5445 13.6542 32.4267C13.6542 32.3089 13.5587 32.2134 13.4409 32.2134C13.3231 32.2134 13.2275 32.3089 13.2275 32.4267C13.2275 32.5445 13.3231 32.64 13.4409 32.64Z" fill="white"/>
<path d="M14.2944 32.64C14.4122 32.64 14.5077 32.5445 14.5077 32.4267C14.5077 32.3089 14.4122 32.2134 14.2944 32.2134C14.1766 32.2134 14.0811 32.3089 14.0811 32.4267C14.0811 32.5445 14.1766 32.64 14.2944 32.64Z" fill="white"/>
<path d="M16.0004 35.8402C16.1183 35.8402 16.2138 35.7447 16.2138 35.6269C16.2138 35.5091 16.1183 35.4136 16.0004 35.4136C15.8826 35.4136 15.7871 35.5091 15.7871 35.6269C15.7871 35.7447 15.8826 35.8402 16.0004 35.8402Z" fill="white"/>
<path d="M15.5747 36.3734C15.6925 36.3734 15.788 36.2779 15.788 36.1601C15.788 36.0423 15.6925 35.9468 15.5747 35.9468C15.4568 35.9468 15.3613 36.0423 15.3613 36.1601C15.3613 36.2779 15.4568 36.3734 15.5747 36.3734Z" fill="white"/>
<path d="M16.4272 36.3734C16.545 36.3734 16.6405 36.2779 16.6405 36.1601C16.6405 36.0423 16.545 35.9468 16.4272 35.9468C16.3094 35.9468 16.2139 36.0423 16.2139 36.1601C16.2139 36.2779 16.3094 36.3734 16.4272 36.3734Z" fill="white"/>
<path d="M15.5747 35.307C15.6925 35.307 15.788 35.2115 15.788 35.0937C15.788 34.9759 15.6925 34.8804 15.5747 34.8804C15.4568 34.8804 15.3613 34.9759 15.3613 35.0937C15.3613 35.2115 15.4568 35.307 15.5747 35.307Z" fill="white"/>
<path d="M16.4272 35.307C16.545 35.307 16.6405 35.2115 16.6405 35.0937C16.6405 34.9759 16.545 34.8804 16.4272 34.8804C16.3094 34.8804 16.2139 34.9759 16.2139 35.0937C16.2139 35.2115 16.3094 35.307 16.4272 35.307Z" fill="white"/>
<path d="M14.9336 27.7336H17.0669L16.8536 26.6669V25.6002H17.0669V25.0669H16.7469V25.3869H16.6403V25.0669H16.3203V25.3869H16.1069V25.0669H15.8936V25.3869H15.6803V25.0669H15.3603V25.3869H15.1469V25.0669H14.9336V25.6002H15.1469V26.6669L14.9336 27.7336Z" fill="#FFE62E"/>
<path d="M16.3204 27.7332H16.2137V27.3065C16.2137 27.1999 16.107 27.0932 16.0004 27.0932C15.8937 27.0932 15.787 27.1999 15.787 27.3065V27.7332H15.6804V27.3065C15.6804 27.0932 15.787 26.9865 16.0004 26.9865C16.2137 26.9865 16.3204 27.0932 16.3204 27.3065V27.7332ZM16.0004 26.5599H15.3604V26.0265C15.3604 25.8132 15.467 25.7065 15.6804 25.7065C15.8937 25.7065 16.0004 25.8132 16.0004 26.0265V26.5599ZM15.467 26.4532H15.8937V26.0265C15.8937 25.9199 15.787 25.8132 15.6804 25.8132C15.5737 25.8132 15.467 25.9199 15.467 26.0265V26.4532ZM16.6404 26.5599H16.0004V26.0265C16.0004 25.8132 16.107 25.7065 16.3204 25.7065C16.5337 25.7065 16.6404 25.8132 16.6404 26.0265V26.5599ZM16.107 26.4532H16.5337V26.0265C16.5337 25.9199 16.427 25.8132 16.3204 25.8132C16.2137 25.8132 16.107 25.9199 16.107 26.0265V26.4532Z" fill="#3E4347"/>
<path d="M9.59961 27.7336H11.7329L11.5196 26.6669V25.6002H11.7329V25.0669H11.4129V25.3869H11.3063V25.0669H10.9863V25.3869H10.7729V25.0669H10.5596V25.3869H10.3463V25.0669H10.0263V25.3869H9.81294V25.0669H9.59961V25.6002H9.81294V26.6669L9.59961 27.7336Z" fill="#FFE62E"/>
<path d="M10.9873 27.7332H10.8807V27.3065C10.8807 27.1999 10.774 27.0932 10.6673 27.0932C10.5607 27.0932 10.454 27.1999 10.454 27.3065V27.7332H10.3473V27.3065C10.3473 27.0932 10.454 26.9865 10.6673 26.9865C10.8807 26.9865 10.9873 27.0932 10.9873 27.3065V27.7332ZM10.6673 26.5599H10.0273V26.0265C10.0273 25.8132 10.134 25.7065 10.3473 25.7065C10.5607 25.7065 10.6673 25.8132 10.6673 26.0265V26.5599ZM10.134 26.4532H10.5607V26.0265C10.5607 25.9199 10.454 25.8132 10.3473 25.8132C10.2407 25.8132 10.134 25.9199 10.134 26.0265V26.4532Z" fill="#3E4347"/>
<path d="M11.307 26.5599H10.667V26.0265C10.667 25.8132 10.7737 25.7065 10.987 25.7065C11.2003 25.7065 11.307 25.8132 11.307 26.0265V26.5599ZM10.7737 26.4532H11.2003V26.0265C11.2003 25.9199 11.0937 25.8132 10.987 25.8132C10.8803 25.8132 10.7737 25.9199 10.7737 26.0265V26.4532Z" fill="#3E4347"/>
<path d="M9.59961 34.0265H11.7329L11.5196 32.9599V31.8932H11.7329V31.3599H11.5196V31.6799H11.3063V31.3599H11.0929V31.6799H10.7729V31.3599H10.5596V31.6799H10.3463V31.3599H10.1329V31.6799H9.91961V31.3599H9.59961V31.8932H9.91961V32.9599L9.59961 34.0265Z" fill="#FFE62E"/>
<path d="M10.9873 34.0267H10.8807V33.6C10.8807 33.4933 10.774 33.3867 10.6673 33.3867C10.5607 33.3867 10.454 33.4933 10.454 33.6V34.0267H10.3473V33.6C10.3473 33.3867 10.454 33.28 10.6673 33.28C10.8807 33.28 10.9873 33.3867 10.9873 33.6V34.0267ZM10.6673 32.8533H10.0273V32.32C10.0273 32.1067 10.134 32 10.3473 32C10.5607 32 10.6673 32.1067 10.6673 32.32V32.8533ZM10.134 32.7467H10.5607V32.32C10.5607 32.2133 10.454 32.1067 10.3473 32.1067C10.2407 32.1067 10.134 32.2133 10.134 32.32V32.7467ZM11.414 32.8533H10.774V32.32C10.774 32.1067 10.8807 32 11.094 32C11.3073 32 11.414 32.1067 11.414 32.32V32.8533ZM10.8807 32.7467H11.3073V32.32C11.3073 32.2133 11.2007 32.1067 11.094 32.1067C10.9873 32.1067 10.8807 32.2133 10.8807 32.32V32.7467Z" fill="#3E4347"/>
<path d="M20.2666 34.1332H22.3999L22.1866 33.0666V31.9999H22.3999V31.5732H22.0799V31.7866H21.9733V31.5732H21.6533V31.7866H21.4399V31.5732H21.2266V31.7866H21.0133V31.5732H20.6933V31.7866H20.4799V31.5732H20.2666V31.9999H20.4799V33.0666L20.2666 34.1332Z" fill="#FFE62E"/>
<path d="M21.6534 34.1336H21.5467V33.7069C21.5467 33.6003 21.44 33.4936 21.3334 33.4936C21.2267 33.4936 21.12 33.6003 21.12 33.7069V34.1336H21.0134V33.7069C21.0134 33.4936 21.12 33.3869 21.3334 33.3869C21.5467 33.3869 21.6534 33.4936 21.6534 33.7069V34.1336ZM21.3334 32.9603H20.6934V32.4269C20.6934 32.2136 20.8 32.1069 21.0134 32.1069C21.2267 32.1069 21.3334 32.2136 21.3334 32.4269V32.9603ZM20.8 32.8536H21.2267V32.4269C21.2267 32.3203 21.12 32.2136 21.0134 32.2136C20.9067 32.2136 20.8 32.3203 20.8 32.4269V32.8536ZM21.9734 32.9603H21.3334V32.4269C21.3334 32.2136 21.44 32.1069 21.6534 32.1069C21.8667 32.1069 21.9734 32.2136 21.9734 32.4269V32.9603ZM21.44 32.8536H21.8667V32.4269C21.8667 32.3203 21.76 32.2136 21.6534 32.2136C21.5467 32.2136 21.44 32.3203 21.44 32.4269V32.8536Z" fill="#3E4347"/>
<path d="M20.2666 27.7336H22.3999L22.1866 26.6669V25.6002H22.3999V25.0669H22.0799V25.3869H21.9733V25.0669H21.6533V25.3869H21.4399V25.0669H21.2266V25.3869H21.0133V25.0669H20.6933V25.3869H20.4799V25.0669H20.2666V25.6002H20.4799V26.6669L20.2666 27.7336Z" fill="#FFE62E"/>
<path d="M21.6534 27.7332H21.5467V27.3065C21.5467 27.1999 21.44 27.0932 21.3334 27.0932C21.2267 27.0932 21.12 27.1999 21.12 27.3065V27.7332H21.0134V27.3065C21.0134 27.0932 21.12 26.9865 21.3334 26.9865C21.5467 26.9865 21.6534 27.0932 21.6534 27.3065V27.7332ZM21.3334 26.5599H20.6934V26.0265C20.6934 25.8132 20.8 25.7065 21.0134 25.7065C21.2267 25.7065 21.3334 25.8132 21.3334 26.0265V26.5599ZM20.8 26.4532H21.2267V26.0265C21.2267 25.9199 21.12 25.8132 21.0134 25.8132C20.9067 25.8132 20.8 25.9199 20.8 26.0265V26.4532ZM21.9734 26.5599H21.3334V26.0265C21.3334 25.8132 21.44 25.7065 21.6534 25.7065C21.8667 25.7065 21.9734 25.8132 21.9734 26.0265V26.5599ZM21.44 26.4532H21.8667V26.0265C21.8667 25.9199 21.76 25.8132 21.6534 25.8132C21.5467 25.8132 21.44 25.9199 21.44 26.0265V26.4532Z" fill="#3E4347"/>
<path d="M13.0135 40.1067L14.5069 38.5067L13.5469 37.9734L12.8002 37.2267L13.0135 37.0134L12.6935 36.6934L12.4802 36.9067L12.6935 37.12L12.5869 37.2267L12.3735 37.0134L12.1602 37.2267L12.3735 37.3334L12.1602 37.5467L12.0535 37.3334L11.8402 37.5467L12.0535 37.76L11.8402 37.8667L11.7335 37.6534L11.5202 37.8667L11.6269 38.08L11.5202 38.1867L11.4135 37.9734L11.2002 38.1867L11.5202 38.5067H11.6269L11.7335 38.4L12.4802 39.1467L13.0135 40.1067Z" fill="#FFE62E"/>
<path d="M13.5467 38.8266C13.4401 38.7199 13.3334 38.7199 13.2267 38.8266C13.1201 38.9332 13.1201 39.0399 13.2267 39.1466L13.5467 39.4666L13.4401 39.5732L13.1201 39.2532C13.0134 39.1466 13.0134 38.9332 13.1201 38.8266C13.2267 38.7199 13.4401 38.7199 13.5467 38.8266ZM12.9067 38.5066L12.4801 38.9332L12.1601 38.6132C12.0534 38.5066 12.0534 38.2932 12.1601 38.1866C12.2667 38.0799 12.4801 38.0799 12.5867 38.1866L12.9067 38.5066ZM12.4801 38.8266L12.8001 38.5066L12.4801 38.1866C12.3734 38.0799 12.2667 38.0799 12.1601 38.1866C12.0534 38.2932 12.0534 38.3999 12.1601 38.5066L12.4801 38.8266ZM13.4401 37.9732L13.0134 38.3999L12.6934 38.0799C12.5867 37.9732 12.5867 37.7599 12.6934 37.6532C12.8001 37.5466 13.0134 37.5466 13.1201 37.6532L13.4401 37.9732ZM13.0134 38.2932L13.3334 37.9732L13.0134 37.6532C12.9067 37.5466 12.8001 37.5466 12.6934 37.6532C12.5867 37.7599 12.5867 37.8666 12.6934 37.9732L13.0134 38.2932Z" fill="#3E4347"/>
<path d="M18.9875 40.1067L17.4941 38.5067L18.3475 37.9734L19.0941 37.2267L18.9875 37.0134L19.3075 36.6934L19.5208 36.9067L19.3075 37.12L19.4141 37.2267L19.6275 37.0134L19.8408 37.2267L19.6275 37.3334L19.8408 37.5467L19.9475 37.3334L20.1608 37.5467L19.9475 37.76L20.1608 37.8667L20.2675 37.6534L20.4808 37.8667L20.2675 38.08L20.4808 38.1867L20.5875 37.9734L20.8008 38.1867L20.4808 38.5067H20.3741L20.2675 38.4L19.5208 39.1467L18.9875 40.1067Z" fill="#FFE62E"/>
<path d="M18.0273 39.0399L18.454 38.8266C18.5607 38.7199 18.6673 38.7199 18.774 38.8266C18.8807 38.9332 18.8807 39.0399 18.774 39.1466L18.3473 39.4666L18.454 39.5732L18.774 39.2532C18.8807 39.1466 18.8807 38.9332 18.774 38.8266C18.6673 38.7199 18.454 38.7199 18.3473 38.8266L18.0273 39.0399ZM19.414 38.1866C19.5207 38.0799 19.734 38.0799 19.8407 38.1866C19.9473 38.2932 19.9473 38.5066 19.8407 38.6132L19.5207 38.9332L19.094 38.5066L19.414 38.1866ZM19.734 38.5066C19.8407 38.3999 19.8407 38.2932 19.734 38.1866C19.6273 38.0799 19.5207 38.0799 19.414 38.1866L19.2007 38.5066L19.5207 38.8266L19.734 38.5066ZM18.8807 37.6532C18.9873 37.5466 19.2007 37.5466 19.3073 37.6532C19.414 37.7599 19.414 37.9732 19.3073 38.0799L18.9873 38.3999L18.5607 37.9732L18.8807 37.6532ZM19.3073 37.9732C19.414 37.8666 19.414 37.7599 19.3073 37.6532C19.2007 37.5466 19.094 37.5466 18.9873 37.6532L18.6673 37.9732L18.9873 38.2932L19.3073 37.9732Z" fill="#3E4347"/>
</svg>
