<svg width="64" height="64" viewBox="0 0 64 64" fill="none" xmlns="http://www.w3.org/2000/svg">
<path d="M31.8935 0C18.0268 0 6.18681 8.96 1.81348 21.3333H62.1868C57.7068 8.96 45.8668 0 31.8935 0Z" fill="#F9F9F9"/>
<path d="M31.8935 63.9998C45.8668 63.9998 57.7068 55.0398 62.0801 42.6665H1.81348C6.18681 55.1465 18.0268 63.9998 31.8935 63.9998Z" fill="#D22F27"/>
<path d="M1.81333 21.3335C0.64 24.6402 0 28.2668 0 32.0002C0 35.7335 0.64 39.3602 1.81333 42.6668H62.1867C63.36 39.3602 64 35.7335 64 32.0002C64 28.2668 63.36 24.6402 62.1867 21.3335H1.81333Z" fill="#1E50A0"/>
</svg>
