<svg width="976" height="77" viewBox="0 0 976 77" fill="none" xmlns="http://www.w3.org/2000/svg">
<path d="M28.5166 45C29.2373 44.8594 29.7852 44.4492 30.1602 43.7695L30.1865 43.6992L34.8887 31.3682L39.6787 43.6992L39.6875 43.7256L39.7139 43.8047C40.0889 44.4609 40.6338 44.8594 41.3486 45H36.2686C37.3877 44.6719 37.9473 44.3086 37.9473 43.9102C37.9473 43.8691 37.9414 43.8252 37.9297 43.7783L37.9033 43.6992L36.5586 40.2539H32.5068L31.2148 43.6992L31.1885 43.7871C31.1768 43.8223 31.1709 43.8604 31.1709 43.9014C31.1709 44.2588 31.7305 44.625 32.8496 45H28.5166ZM32.8408 39.3574H36.2158L34.5107 34.7168L32.8408 39.3574ZM41.2607 45C41.9873 44.8594 42.5381 44.4492 42.9131 43.7695L42.9307 43.6992V35.3408V35.2617C42.9307 34.5176 42.374 34.1104 41.2607 34.04L44.6621 31.3682V43.6992L44.6797 43.7783C44.9961 44.4287 45.5469 44.8359 46.332 45H41.2607Z" fill="white"/>
<path d="M205.713 45C206.434 44.8594 206.981 44.4492 207.356 43.7695L207.383 43.6992L212.085 31.3682L216.875 43.6992L216.884 43.7256L216.91 43.8047C217.285 44.4609 217.83 44.8594 218.545 45H213.465C214.584 44.6719 215.144 44.3086 215.144 43.9102C215.144 43.8691 215.138 43.8252 215.126 43.7783L215.1 43.6992L213.755 40.2539H209.703L208.411 43.6992L208.385 43.7871C208.373 43.8223 208.367 43.8604 208.367 43.9014C208.367 44.2588 208.927 44.625 210.046 45H205.713ZM210.037 39.3574H213.412L211.707 34.7168L210.037 39.3574ZM219.072 45C219.447 42.3574 220.783 40.3594 223.08 39.0059L223.669 38.751C225.216 38.1533 225.989 37.0166 225.989 35.3408V35.1738C225.989 34.377 225.799 33.7617 225.418 33.3281C224.896 32.7363 224.308 32.4404 223.651 32.4404H223.634C222.743 32.4404 222.005 32.6953 221.419 33.2051C220.962 33.6035 220.669 34.0928 220.54 34.6729C220.833 34.6846 221.085 34.7988 221.296 35.0156C221.519 35.2383 221.63 35.5107 221.63 35.833C221.63 36.1553 221.519 36.4307 221.296 36.6592C221.073 36.8818 220.804 36.9932 220.487 36.9932C220.171 36.9932 219.901 36.876 219.679 36.6416C219.456 36.4014 219.345 36.1201 219.345 35.7979C219.345 34.6377 219.77 33.627 220.619 32.7656C221.475 31.9219 222.468 31.4971 223.599 31.4912H223.616C224.753 31.4912 225.755 31.8398 226.622 32.5371C227.495 33.2461 227.932 34.1953 227.932 35.3848V35.666C227.861 36.9375 227.349 37.8838 226.394 38.5049C225.731 38.9385 224.996 39.3164 224.188 39.6387C222.945 40.043 221.68 41.1416 220.391 42.9346C220.713 42.7119 221.041 42.6006 221.375 42.6006C221.387 42.6006 221.396 42.6006 221.401 42.6006C221.407 42.6006 221.416 42.6006 221.428 42.6006C222.061 42.6006 222.884 42.7471 223.897 43.04L225.813 43.4531C226.06 43.5059 226.297 43.5322 226.525 43.5322C227.305 43.5322 227.999 43.2275 228.608 42.6182C227.958 44.3525 227.17 45.2197 226.244 45.2197C226.232 45.2197 226.221 45.2197 226.209 45.2197C226.197 45.2197 226.186 45.2197 226.174 45.2197C226.162 45.2197 226.15 45.2197 226.139 45.2197H226.13C225.397 45.2197 224.542 45.0732 223.563 44.7803L221.744 44.3672C221.463 44.3027 221.193 44.2705 220.936 44.2705C220.221 44.2705 219.603 44.5107 219.081 44.9912L219.072 45Z" fill="white"/>
<path d="M392.104 32.5283C391.812 32.6338 391.598 32.7686 391.463 32.9326C391.311 33.1201 391.229 33.3896 391.217 33.7412V42.9785C391.217 43.2363 391.258 43.4326 391.34 43.5674C391.451 43.749 391.592 43.8896 391.762 43.9893C392.201 44.2119 392.714 44.3232 393.3 44.3232C393.394 44.3232 393.487 44.3203 393.581 44.3145C394.806 44.2383 395.652 44.0039 396.121 43.6113C396.596 43.2891 396.965 42.8672 397.229 42.3457C397.41 41.9883 397.501 41.5225 397.501 40.9482C397.501 40.8369 397.498 40.7227 397.492 40.6055C397.451 39.7852 396.947 39.1699 395.98 38.7598C395.43 38.5254 394.82 38.2969 394.152 38.0742C393.256 37.7754 392.758 37.6055 392.658 37.5645C393.66 37.2422 394.22 37.0605 394.337 37.0195C394.694 36.8906 395.008 36.75 395.277 36.5977C395.512 36.4688 395.699 36.334 395.84 36.1934C396.156 35.8652 396.314 35.4141 396.314 34.8398C396.314 34.8164 396.314 34.7871 396.314 34.752C396.314 34.043 396.01 33.4512 395.4 32.9766C395.014 32.6777 394.398 32.4668 393.555 32.3438C393.473 32.332 393.355 32.3262 393.203 32.3262C392.904 32.332 392.538 32.3994 392.104 32.5283ZM387.807 43.6992C387.906 43.6934 388.246 43.6289 388.826 43.5059C389.066 43.4531 389.245 43.3799 389.362 43.2861C389.438 43.2275 389.477 43.125 389.477 42.9785V33.7412C389.477 33.6064 389.43 33.4951 389.336 33.4072C389.207 33.29 389.055 33.2168 388.879 33.1875C388.352 33.0996 387.994 33.0439 387.807 33.0205L390.83 31.8691C391.475 31.623 392.371 31.5 393.52 31.5C394.311 31.5 395.031 31.6289 395.682 31.8867C396.35 32.1504 396.871 32.4727 397.246 32.8535C397.738 33.3516 398.02 33.9463 398.09 34.6377C398.096 34.6963 398.099 34.7549 398.099 34.8135C398.099 35.1182 398.031 35.4199 397.896 35.7188C397.738 36.0703 397.483 36.375 397.132 36.6328C396.938 36.7734 396.575 36.9434 396.042 37.1426C395.995 37.1602 395.477 37.3008 394.486 37.5645C395.066 37.6113 395.521 37.6553 395.849 37.6963C396.71 37.8076 397.328 37.9512 397.703 38.127C398.594 38.543 399.142 39.2109 399.347 40.1309C399.411 40.418 399.443 40.7021 399.443 40.9834C399.443 41.458 399.355 41.9355 399.18 42.416C398.928 43.1074 398.441 43.6934 397.721 44.1738C397.369 44.4082 396.736 44.6602 395.822 44.9297C395.16 45.123 394.393 45.2197 393.52 45.2197C393.443 45.2197 393.3 45.2168 393.089 45.2109C392.228 45.1758 391.404 45.0117 390.619 44.7188C389.154 44.1738 388.217 43.834 387.807 43.6992ZM401.113 45C401.84 44.8594 402.391 44.4492 402.766 43.7695L402.783 43.6992V35.3408V35.2617C402.783 34.5176 402.227 34.1104 401.113 34.04L404.515 31.3682V43.6992L404.532 43.7783C404.849 44.4287 405.399 44.8359 406.185 45H401.113Z" fill="white"/>
<path d="M569.456 32.5283C569.163 32.6338 568.949 32.7686 568.814 32.9326C568.662 33.1201 568.58 33.3896 568.568 33.7412V42.9785C568.568 43.2363 568.609 43.4326 568.691 43.5674C568.802 43.749 568.943 43.8896 569.113 43.9893C569.552 44.2119 570.065 44.3232 570.651 44.3232C570.745 44.3232 570.838 44.3203 570.932 44.3145C572.157 44.2383 573.003 44.0039 573.472 43.6113C573.947 43.2891 574.316 42.8672 574.58 42.3457C574.761 41.9883 574.852 41.5225 574.852 40.9482C574.852 40.8369 574.849 40.7227 574.843 40.6055C574.802 39.7852 574.298 39.1699 573.332 38.7598C572.781 38.5254 572.171 38.2969 571.503 38.0742C570.607 37.7754 570.109 37.6055 570.009 37.5645C571.011 37.2422 571.571 37.0605 571.688 37.0195C572.045 36.8906 572.359 36.75 572.628 36.5977C572.863 36.4688 573.05 36.334 573.191 36.1934C573.507 35.8652 573.666 35.4141 573.666 34.8398C573.666 34.8164 573.666 34.7871 573.666 34.752C573.666 34.043 573.361 33.4512 572.751 32.9766C572.365 32.6777 571.75 32.4668 570.906 32.3438C570.824 32.332 570.707 32.3262 570.554 32.3262C570.255 32.332 569.889 32.3994 569.456 32.5283ZM565.158 43.6992C565.257 43.6934 565.597 43.6289 566.177 43.5059C566.417 43.4531 566.596 43.3799 566.713 43.2861C566.79 43.2275 566.828 43.125 566.828 42.9785V33.7412C566.828 33.6064 566.781 33.4951 566.687 33.4072C566.558 33.29 566.406 33.2168 566.23 33.1875C565.703 33.0996 565.345 33.0439 565.158 33.0205L568.181 31.8691C568.826 31.623 569.722 31.5 570.871 31.5C571.662 31.5 572.382 31.6289 573.033 31.8867C573.701 32.1504 574.222 32.4727 574.597 32.8535C575.089 33.3516 575.371 33.9463 575.441 34.6377C575.447 34.6963 575.45 34.7549 575.45 34.8135C575.45 35.1182 575.382 35.4199 575.248 35.7188C575.089 36.0703 574.834 36.375 574.483 36.6328C574.29 36.7734 573.926 36.9434 573.393 37.1426C573.346 37.1602 572.828 37.3008 571.837 37.5645C572.417 37.6113 572.872 37.6553 573.2 37.6963C574.061 37.8076 574.679 37.9512 575.054 38.127C575.945 38.543 576.493 39.2109 576.698 40.1309C576.762 40.418 576.794 40.7021 576.794 40.9834C576.794 41.458 576.707 41.9355 576.531 42.416C576.279 43.1074 575.792 43.6934 575.072 44.1738C574.72 44.4082 574.087 44.6602 573.173 44.9297C572.511 45.123 571.744 45.2197 570.871 45.2197C570.794 45.2197 570.651 45.2168 570.44 45.2109C569.579 45.1758 568.755 45.0117 567.97 44.7188C566.505 44.1738 565.568 43.834 565.158 43.6992ZM579.08 45C579.455 42.3574 580.791 40.3594 583.087 39.0059L583.676 38.751C585.223 38.1533 585.997 37.0166 585.997 35.3408V35.1738C585.997 34.377 585.806 33.7617 585.425 33.3281C584.904 32.7363 584.315 32.4404 583.659 32.4404H583.641C582.75 32.4404 582.012 32.6953 581.426 33.2051C580.969 33.6035 580.676 34.0928 580.547 34.6729C580.84 34.6846 581.092 34.7988 581.303 35.0156C581.526 35.2383 581.637 35.5107 581.637 35.833C581.637 36.1553 581.526 36.4307 581.303 36.6592C581.081 36.8818 580.811 36.9932 580.495 36.9932C580.178 36.9932 579.909 36.876 579.686 36.6416C579.463 36.4014 579.352 36.1201 579.352 35.7979C579.352 34.6377 579.777 33.627 580.626 32.7656C581.482 31.9219 582.475 31.4971 583.606 31.4912H583.624C584.76 31.4912 585.762 31.8398 586.629 32.5371C587.502 33.2461 587.939 34.1953 587.939 35.3848V35.666C587.869 36.9375 587.356 37.8838 586.401 38.5049C585.739 38.9385 585.003 39.3164 584.195 39.6387C582.953 40.043 581.687 41.1416 580.398 42.9346C580.72 42.7119 581.048 42.6006 581.382 42.6006C581.394 42.6006 581.403 42.6006 581.409 42.6006C581.415 42.6006 581.423 42.6006 581.435 42.6006C582.068 42.6006 582.891 42.7471 583.905 43.04L585.821 43.4531C586.067 43.5059 586.304 43.5322 586.533 43.5322C587.312 43.5322 588.006 43.2275 588.616 42.6182C587.965 44.3525 587.177 45.2197 586.251 45.2197C586.24 45.2197 586.228 45.2197 586.216 45.2197C586.205 45.2197 586.193 45.2197 586.181 45.2197C586.169 45.2197 586.158 45.2197 586.146 45.2197H586.137C585.405 45.2197 584.549 45.0732 583.571 44.7803L581.751 44.3672C581.47 44.3027 581.201 44.2705 580.943 44.2705C580.228 44.2705 579.61 44.5107 579.088 44.9912L579.08 45Z" fill="white"/>
<path d="M749.959 41.1328C749.701 40.3125 749.572 39.4219 749.572 38.4609C749.572 37.5 749.701 36.5742 749.959 35.6836C750.223 34.7695 750.574 34.0254 751.014 33.4512C751.471 32.8477 751.998 32.373 752.596 32.0273C753.199 31.6758 753.809 31.5 754.424 31.5C754.453 31.5 754.482 31.5 754.512 31.5C755.191 31.5 755.821 31.6523 756.401 31.957C756.8 32.168 757.116 32.3818 757.351 32.5986L757.421 32.6074C758.007 32.5605 758.394 32.1885 758.581 31.4912V36.5713C758.276 35.376 757.919 34.4385 757.509 33.7588C757.31 33.4482 757.055 33.1787 756.744 32.9502C756.264 32.5986 755.695 32.4229 755.039 32.4229C754.283 32.4229 753.586 32.6748 752.947 33.1787C752.484 33.7119 752.115 34.4766 751.84 35.4727C751.57 36.4512 751.436 37.4033 751.436 38.3291C751.436 38.3643 751.436 38.4023 751.436 38.4434C751.436 39.3574 751.529 40.1895 751.717 40.9395C752.15 42.2285 752.672 43.125 753.281 43.6289C753.779 44.0391 754.421 44.2441 755.206 44.2441C755.341 44.2441 755.479 44.2383 755.619 44.2266C756.053 44.1914 756.539 44.0039 757.078 43.6641C757.377 43.4824 757.711 43.1602 758.08 42.6973C758.314 42.4043 758.508 42.0176 758.66 41.5371L759.557 41.8887C759.334 42.3984 759.076 42.8496 758.783 43.2422C758.332 43.8398 757.805 44.3115 757.201 44.6572C756.539 45.0322 755.78 45.2197 754.925 45.2197C754.907 45.2197 754.893 45.2197 754.881 45.2197C753.984 45.2197 753.229 45.0439 752.613 44.6924C751.992 44.335 751.459 43.8604 751.014 43.2686C750.574 42.6826 750.223 41.9707 749.959 41.1328ZM760.963 45C761.689 44.8594 762.24 44.4492 762.615 43.7695L762.633 43.6992V35.3408V35.2617C762.633 34.5176 762.076 34.1104 760.963 34.04L764.364 31.3682V43.6992L764.382 43.7783C764.698 44.4287 765.249 44.8359 766.034 45H760.963Z" fill="white"/>
<path d="M928.655 41.1328C928.397 40.3125 928.269 39.4219 928.269 38.4609C928.269 37.5 928.397 36.5742 928.655 35.6836C928.919 34.7695 929.271 34.0254 929.71 33.4512C930.167 32.8477 930.694 32.373 931.292 32.0273C931.896 31.6758 932.505 31.5 933.12 31.5C933.149 31.5 933.179 31.5 933.208 31.5C933.888 31.5 934.518 31.6523 935.098 31.957C935.496 32.168 935.812 32.3818 936.047 32.5986L936.117 32.6074C936.703 32.5605 937.09 32.1885 937.277 31.4912V36.5713C936.973 35.376 936.615 34.4385 936.205 33.7588C936.006 33.4482 935.751 33.1787 935.44 32.9502C934.96 32.5986 934.392 32.4229 933.735 32.4229C932.979 32.4229 932.282 32.6748 931.644 33.1787C931.181 33.7119 930.812 34.4766 930.536 35.4727C930.267 36.4512 930.132 37.4033 930.132 38.3291C930.132 38.3643 930.132 38.4023 930.132 38.4434C930.132 39.3574 930.226 40.1895 930.413 40.9395C930.847 42.2285 931.368 43.125 931.978 43.6289C932.476 44.0391 933.117 44.2441 933.902 44.2441C934.037 44.2441 934.175 44.2383 934.315 44.2266C934.749 44.1914 935.235 44.0039 935.774 43.6641C936.073 43.4824 936.407 43.1602 936.776 42.6973C937.011 42.4043 937.204 42.0176 937.356 41.5371L938.253 41.8887C938.03 42.3984 937.772 42.8496 937.479 43.2422C937.028 43.8398 936.501 44.3115 935.897 44.6572C935.235 45.0322 934.477 45.2197 933.621 45.2197C933.604 45.2197 933.589 45.2197 933.577 45.2197C932.681 45.2197 931.925 45.0439 931.31 44.6924C930.688 44.335 930.155 43.8604 929.71 43.2686C929.271 42.6826 928.919 41.9707 928.655 41.1328ZM940.274 45C940.649 42.3574 941.985 40.3594 944.282 39.0059L944.871 38.751C946.418 38.1533 947.191 37.0166 947.191 35.3408V35.1738C947.191 34.377 947.001 33.7617 946.62 33.3281C946.099 32.7363 945.51 32.4404 944.854 32.4404H944.836C943.945 32.4404 943.207 32.6953 942.621 33.2051C942.164 33.6035 941.871 34.0928 941.742 34.6729C942.035 34.6846 942.287 34.7988 942.498 35.0156C942.721 35.2383 942.832 35.5107 942.832 35.833C942.832 36.1553 942.721 36.4307 942.498 36.6592C942.275 36.8818 942.006 36.9932 941.689 36.9932C941.373 36.9932 941.104 36.876 940.881 36.6416C940.658 36.4014 940.547 36.1201 940.547 35.7979C940.547 34.6377 940.972 33.627 941.821 32.7656C942.677 31.9219 943.67 31.4971 944.801 31.4912H944.818C945.955 31.4912 946.957 31.8398 947.824 32.5371C948.697 33.2461 949.134 34.1953 949.134 35.3848V35.666C949.063 36.9375 948.551 37.8838 947.596 38.5049C946.934 38.9385 946.198 39.3164 945.39 39.6387C944.147 40.043 942.882 41.1416 941.593 42.9346C941.915 42.7119 942.243 42.6006 942.577 42.6006C942.589 42.6006 942.598 42.6006 942.604 42.6006C942.609 42.6006 942.618 42.6006 942.63 42.6006C943.263 42.6006 944.086 42.7471 945.1 43.04L947.016 43.4531C947.262 43.5059 947.499 43.5322 947.728 43.5322C948.507 43.5322 949.201 43.2275 949.811 42.6182C949.16 44.3525 948.372 45.2197 947.446 45.2197C947.435 45.2197 947.423 45.2197 947.411 45.2197C947.399 45.2197 947.388 45.2197 947.376 45.2197C947.364 45.2197 947.353 45.2197 947.341 45.2197H947.332C946.6 45.2197 945.744 45.0732 944.766 44.7803L942.946 44.3672C942.665 44.3027 942.396 44.2705 942.138 44.2705C941.423 44.2705 940.805 44.5107 940.283 44.9912L940.274 45Z" fill="white"/>
<path fill-rule="evenodd" clip-rule="evenodd" d="M38.5 77C58.2407 77 74.5113 62.1427 76.7398 43L179.26 43C181.489 62.1427 197.759 77 217.5 77C237.241 77 253.511 62.1427 255.74 43L359.26 43C361.489 62.1427 377.759 77 397.5 77C417.241 77 433.511 62.1427 435.74 43L539.26 43C541.489 62.1427 557.759 77 577.5 77C597.241 77 613.511 62.1427 615.74 43L719.26 43C721.489 62.1427 737.759 77 757.5 77C777.241 77 793.511 62.1427 795.74 43L899.26 43C901.489 62.1427 917.759 77 937.5 77C958.763 77 976 59.763 976 38.5C976 17.237 958.763 0 937.5 0C917.077 0 900.368 15.9022 899.08 36L795.92 36C794.632 15.9022 777.923 0 757.5 0C737.077 0 720.368 15.9022 719.08 36L615.92 36C614.632 15.9022 597.923 0 577.5 0C557.077 0 540.368 15.9022 539.08 36L435.92 36C434.632 15.9022 417.923 0 397.5 0C377.077 0 360.368 15.9022 359.08 36L255.92 36C254.632 15.9022 237.923 0 217.5 0C197.077 0 180.368 15.9022 179.08 36L76.9201 36C75.632 15.9022 58.9231 0 38.5 0C17.237 0 0 17.2371 0 38.5C0 59.7629 17.237 77 38.5 77ZM38.5 57C48.7173 57 57 48.7173 57 38.5C57 28.2827 48.7173 20 38.5 20C28.2827 20 20 28.2827 20 38.5C20 48.7173 28.2827 57 38.5 57ZM217.5 57C227.717 57 236 48.7173 236 38.5C236 28.2827 227.717 20 217.5 20C207.283 20 199 28.2827 199 38.5C199 48.7173 207.283 57 217.5 57ZM416 38.5C416 48.7173 407.717 57 397.5 57C387.283 57 379 48.7173 379 38.5C379 28.2827 387.283 20 397.5 20C407.717 20 416 28.2827 416 38.5ZM577.5 57C587.717 57 596 48.7173 596 38.5C596 28.2827 587.717 20 577.5 20C567.283 20 559 28.2827 559 38.5C559 48.7173 567.283 57 577.5 57ZM776 38.5C776 48.7173 767.717 57 757.5 57C747.283 57 739 48.7173 739 38.5C739 28.2827 747.283 20 757.5 20C767.717 20 776 28.2827 776 38.5ZM956 38.5C956 48.7173 947.717 57 937.5 57C927.283 57 919 48.7173 919 38.5C919 28.2827 927.283 20 937.5 20C947.717 20 956 28.2827 956 38.5Z" fill="url(#paint0_linear_129_54)"/>
<defs>
<linearGradient id="paint0_linear_129_54" x1="-5.45383e-06" y1="38.5" x2="976" y2="38.4999" gradientUnits="userSpaceOnUse">
<stop stop-color="#FA7BC4"/>
<stop offset="1" stop-color="#8F35B8"/>
</linearGradient>
</defs>
</svg>
