<svg width="64" height="64" viewBox="0 0 64 64" fill="none" xmlns="http://www.w3.org/2000/svg">
<path d="M0 31.9998C0 38.2931 1.81636 44.1598 4.91486 49.0664H59.0851C62.1836 44.1598 64 38.2931 64 31.9998C64 25.7064 62.1836 19.8398 59.0851 14.9331H4.91486C1.81636 19.8398 0 25.7064 0 31.9998Z" fill="#FFC400"/>
<path d="M59.1922 14.9333C53.5294 5.97333 43.486 0 32.0536 0C20.6212 0 10.5778 5.97333 4.91504 14.9333H59.1922ZM4.91504 49.0667C10.5778 58.0267 20.6212 64 32.0536 64C43.486 64 53.5294 58.0267 59.1922 49.0667H4.91504Z" fill="#C60A1D"/>
<path d="M7.69287 28.48H11.1119V30.4H7.69287V28.48ZM7.69287 42.56H11.2187V44.3733H7.69287V42.56Z" fill="#FFC400"/>
<path d="M7.37211 39.5732C7.05158 39.7866 6.83789 39.9999 6.83789 40.1066C6.83789 40.2132 6.94474 40.3199 7.15843 40.4266C7.37211 40.5332 7.5858 40.7466 7.47896 40.9599C7.69265 40.7466 7.79949 40.5332 7.79949 40.3199C7.79949 39.9999 7.5858 39.6799 7.37211 39.5732Z" fill="#C60A1D"/>
<path d="M8.22705 30.3999H10.6845V42.5599H8.22705V30.3999Z" fill="white"/>
<path d="M13.2486 34.8802C12.7144 34.6669 11.7528 34.4536 10.6843 34.4536C10.3638 34.4536 9.9364 34.4536 9.50902 34.5602C8.01319 34.7736 6.8379 35.4136 6.94475 35.8402L6.41052 34.6669C6.30368 34.1336 7.58582 33.4936 9.18849 33.1736C9.72271 33.0669 10.2569 33.0669 10.6843 33.0669C11.7528 33.0669 12.7144 33.1736 13.2486 33.3869V34.8802Z" fill="#C60A1D"/>
<path d="M8.22705 36.4802C7.58598 36.4802 7.05176 36.2669 7.05176 35.9469C7.05176 35.7335 7.26545 35.4135 7.69283 35.2002H8.33389L8.22705 36.4802ZM10.6845 35.5202C11.1119 35.6269 11.4324 35.7335 11.6461 35.8402C11.7529 35.9469 11.3255 36.3735 10.6845 36.6935V35.5202Z" fill="#C60A1D"/>
<path d="M6.62444 38.827C6.51759 38.6137 7.26551 38.187 8.22711 37.867C8.65449 37.7603 8.97502 37.547 9.50924 37.3337C10.7914 36.8003 11.8598 36.0537 11.6461 35.8403L11.8598 37.1203C11.9667 37.3337 11.1119 37.9737 9.82978 38.6137C9.4024 38.827 8.65449 39.147 8.22711 39.2537C7.47919 39.467 6.83813 39.8937 6.83813 40.0003L6.62444 38.827Z" fill="#C60A1D"/>
<path d="M30.6645 28.48H34.0835V30.4H30.6645V28.48ZM30.5576 42.56H34.0835V44.3733H30.5576V42.56Z" fill="#FFC400"/>
<path d="M34.4039 39.5732C34.7245 39.7866 34.9382 39.9999 34.9382 40.1066C34.9382 40.2132 34.8313 40.3199 34.6176 40.4266C34.4039 40.6399 34.1903 40.9599 34.2971 41.0666C34.0834 40.8532 33.9766 40.6399 33.9766 40.4266C33.9766 39.9999 34.1903 39.6799 34.4039 39.5732Z" fill="#C60A1D"/>
<path d="M31.0918 30.3999H33.5492V42.5599H31.0918V30.3999Z" fill="white"/>
<path d="M28.5273 34.8802C29.0616 34.6669 30.0232 34.4536 31.0916 34.4536C31.4122 34.4536 31.8395 34.4536 32.2669 34.5602C33.7627 34.7736 34.938 35.4136 34.8312 35.8402L35.3654 34.5602C35.4722 34.0269 34.1901 33.3869 32.5874 33.0669H31.0916C30.0232 33.0669 29.0616 33.1736 28.5273 33.3869V34.8802Z" fill="#C60A1D"/>
<path d="M33.5492 36.4802C34.1902 36.4802 34.7245 36.2669 34.7245 35.9469C34.7245 35.7335 34.5108 35.4135 34.0834 35.2002H33.4423L33.5492 36.4802ZM31.0917 35.5202C30.6644 35.6269 30.3438 35.7335 30.1301 35.8402C30.0233 35.9469 30.4507 36.3735 31.0917 36.6935V35.5202Z" fill="#C60A1D"/>
<path d="M35.1516 38.8267C35.2585 38.6133 34.5106 38.1867 33.5489 37.8667C33.1216 37.76 32.801 37.5467 32.2668 37.3333C30.9847 36.8 29.9162 36.0533 30.1299 35.84L29.9162 37.12C29.8094 37.3333 30.6641 37.9733 31.9463 38.6133C32.3737 38.8267 33.1216 39.1467 33.5489 39.2533C34.2969 39.4667 34.9379 40 34.8311 40.1067L35.1516 38.8267ZM20.8344 21.6533C22.8645 21.6533 27.0314 22.08 28.5272 23.5733C26.9246 27.4133 24.3603 25.8133 20.8344 25.8133C17.4154 25.8133 14.7443 27.4133 13.1416 23.5733C14.6374 22.08 18.6975 21.6533 20.8344 21.6533Z" fill="#C60A1D"/>
<path d="M26.0701 25.9201C24.788 25.1734 22.8647 25.0667 20.8347 25.0667C18.8046 25.0667 16.8814 25.2801 15.5993 25.9201L16.0267 27.7334C17.202 28.0534 18.9115 28.2667 20.8347 28.2667C22.7579 28.2667 24.3606 28.0534 25.6427 27.7334L26.0701 25.9201ZM27.8865 21.3334C27.4591 21.0134 26.6043 20.6934 25.8564 20.6934C25.5359 20.6934 25.2153 20.6934 24.8948 20.8001C24.8948 20.8001 24.2537 19.9467 22.7579 19.9467C22.2237 19.9467 21.7963 20.0534 21.3689 20.2667V20.1601C21.2621 19.9467 21.0484 19.7334 20.8347 19.7334C20.621 19.7334 20.3005 20.0534 20.3005 20.2667V20.3734C19.8731 20.1601 19.4457 20.0534 18.9115 20.0534C17.4157 20.0534 16.7746 21.0134 16.7746 20.9067C16.4541 20.8001 16.1335 20.8001 15.813 20.8001C10.8981 20.8001 13.3556 24.1067 13.3556 24.1067L13.8898 23.4667C12.7145 21.9734 13.7829 21.1201 15.9198 21.1201C16.2404 21.1201 16.4541 21.1201 16.6678 21.2267C15.9198 22.2934 17.3088 23.2534 17.3088 23.2534L17.6294 22.7201C16.8814 22.1867 16.7746 20.3734 18.9115 20.3734C19.4457 20.3734 19.8731 20.4801 20.3005 20.8001C20.3005 20.9067 20.1936 22.4001 20.0868 22.6134L20.9415 23.3601L21.7963 22.6134C21.6895 22.2934 21.5826 20.9067 21.5826 20.8001C21.9031 20.5867 22.4374 20.3734 22.9716 20.3734C25.2153 20.3734 25.2153 22.1867 24.2537 22.7201L24.5743 23.2534C24.5743 23.2534 25.7496 22.2934 25.2153 21.2267C25.429 21.2267 25.7496 21.1201 25.9632 21.1201C28.5275 21.1201 28.6344 23.0401 27.9933 23.4667L28.4207 24.1067C28.207 24.1067 29.3823 22.6134 27.8865 21.3334Z" fill="#FFC400"/>
<path d="M20.1934 19.3065C20.1934 18.9865 20.5139 18.6665 20.8344 18.6665C21.2618 18.6665 21.4755 18.9865 21.4755 19.3065C21.4755 19.6265 21.155 19.9465 20.8344 19.9465C20.5139 19.9465 20.1934 19.6265 20.1934 19.3065Z" fill="#005BBF"/>
<path d="M20.6207 17.4932V17.8132H20.3002V18.1332H20.6207V19.1998H20.1934V19.5198H21.4755L21.5823 19.3065L21.4755 19.1998H21.0481V18.1332H21.3687V17.8132H21.0481V17.4932H20.6207Z" fill="#C8B100"/>
<path d="M20.8347 28.053C19.1252 28.053 17.6294 27.8397 16.4541 27.5197C17.6294 27.1997 19.1252 26.9863 20.8347 26.9863C22.5443 26.9863 24.0401 27.1997 25.2154 27.5197C24.1469 27.8397 22.5443 28.053 20.8347 28.053Z" fill="#C60A1D"/>
<path d="M20.9414 46.5069C18.9113 46.5069 16.9881 45.9735 15.2786 45.2269C13.9964 44.5869 13.2485 43.4135 13.2485 42.0269V36.9069H28.6342V42.0269C28.6342 43.4135 27.7794 44.6935 26.6041 45.2269C24.8946 46.0802 22.9714 46.5069 20.9414 46.5069ZM20.8345 28.3735H28.5273V36.9069H20.8345V28.3735Z" fill="white"/>
<path d="M20.9414 42.0267C20.9414 44.0534 19.2318 45.6534 17.0949 45.6534C14.9581 45.6534 13.2485 44.0534 13.2485 42.0267V36.9067H20.9414V42.0267Z" fill="#C60A1D"/>
<path d="M14.8511 45.0134C15.0648 45.12 15.3853 45.3334 15.8127 45.44V36.6934H14.958L14.8511 45.0134ZM13.1416 41.92C13.1416 42.9867 13.569 43.84 13.9964 44.2667V36.6934H13.1416V41.92Z" fill="#FFC400"/>
<path d="M16.561 45.6534H17.4158V36.6934H16.561V45.6534Z" fill="#C7B500"/>
<path d="M18.2705 45.44C18.591 45.3334 19.0184 45.12 19.2321 45.0134V36.6934H18.3774L18.2705 45.44Z" fill="#FFC400"/>
<path d="M13.1416 28.3735H20.8344V36.9069H13.1416V28.3735Z" fill="#C60A1D"/>
<path d="M20.0864 44.2665C20.5138 43.9465 20.8343 43.1998 20.9412 42.3465V36.7998H20.0864V44.2665Z" fill="#FFC400"/>
<path d="M28.634 36.9066V42.0266C28.634 44.0533 26.9245 45.6532 24.7876 45.6532C22.6507 45.6532 20.9412 44.0533 20.9412 42.0266V36.9066H28.634ZM25.8561 29.8666C26.1766 30.5066 26.1766 32.1066 25.215 31.7866C25.4287 31.8932 25.5356 32.6399 25.8561 33.0666C26.3903 33.7066 27.0314 33.1733 26.9245 32.4266C26.7108 31.2533 26.8177 30.5066 27.0314 29.3333C27.0314 29.4399 27.5656 29.4399 27.7793 29.2266C27.6724 29.5466 27.5656 29.9733 27.7793 29.9733C27.5656 30.2933 27.0314 30.8266 26.9245 31.1466C26.8177 31.8933 27.993 33.2799 26.7108 33.5999C25.8561 33.8133 26.3903 34.4532 26.7108 34.7732C26.7108 34.7732 26.2835 36.1599 26.4972 36.0532C25.6424 36.3732 25.8561 35.6266 25.8561 35.6266C26.2835 34.3466 25.1082 34.2399 25.215 34.0266C24.1466 33.9199 25.3219 34.9866 24.3603 34.9866C24.1466 34.9866 23.7192 35.1999 23.7192 35.1999C22.5439 35.0933 23.185 34.0266 23.6123 34.1333C23.9329 34.2399 24.2534 34.7733 24.2534 34.0266C24.2534 34.0266 23.7192 33.1732 25.1082 33.1732C24.5739 33.1732 24.2534 32.7466 24.0397 32.2133C23.826 32.3199 23.5055 32.8533 22.3302 32.9599C22.3302 32.9599 22.0097 31.7866 22.3302 31.9999C22.7576 32.2133 22.9713 32.2132 23.3987 31.7866C23.185 31.4666 21.9028 31.0399 22.1165 30.2933C22.1165 30.0799 22.7576 29.7599 22.7576 29.7599C22.6507 30.2933 22.9713 30.8266 23.6123 30.8266C24.4671 30.9333 24.1466 30.6133 24.2534 30.3999C24.3603 30.1866 25.0013 30.5066 24.7876 29.9733C24.7876 29.8666 24.0397 29.7599 24.2534 29.4399C24.6808 28.9066 25.3219 29.3333 25.8561 29.8666ZM20.9412 45.4399L20.7275 44.9066L20.9412 44.2666L21.1549 44.9066L20.9412 45.4399Z" fill="#C60A1D"/>
<path d="M15.4921 30.1868V30.7202H15.7058V31.1468H15.1716V32.2135H15.4921V34.5602H14.8511V35.7335H19.2317V34.5602H18.6975V32.2135H18.9112V31.1468H18.377V30.7202H18.6975V30.1868H17.629V30.7202H17.8427V31.1468H17.3085V29.8668H17.629V29.3335H16.4537V29.8668H16.7743V31.1468H16.2401V30.7202H16.4537V30.1868H15.4921ZM27.5656 43.3068V37.9735H22.0097V43.3068L24.5739 44.4802H24.8945L27.5656 43.3068ZM24.5739 38.4002V40.2135L22.7576 38.4002H24.5739ZM22.3302 38.5068L24.4671 40.6402L22.3302 42.7735V38.5068ZM22.5439 43.2002L24.5739 41.1735V44.1602L22.5439 43.2002ZM24.8945 44.0535V41.0668L26.9245 43.0935L24.8945 44.0535ZM27.1382 42.7735L25.0013 40.6402L27.1382 38.5068V42.7735ZM24.8945 38.4002H26.7108L24.8945 40.2135V38.4002Z" fill="#FFC400"/>
<path d="M18.3774 36.7997C18.3774 35.1997 19.4459 34.0264 20.8349 34.0264C22.2239 34.0264 23.2923 35.3064 23.2923 36.7997C23.2923 38.293 22.2239 39.573 20.8349 39.573C19.4459 39.573 18.3774 38.3997 18.3774 36.7997Z" fill="#C60A1D"/>
<path d="M19.125 36.8001C19.125 35.6268 19.8729 34.7734 20.8345 34.7734C21.7961 34.7734 22.544 35.7334 22.544 36.8001C22.544 37.9734 21.7961 38.8268 20.8345 38.8268C19.9798 38.9334 19.125 37.9734 19.125 36.8001Z" fill="#005BBF"/>
<path d="M20.0866 35.4136L19.6592 36.5869L19.9797 36.6936L19.766 37.1202H20.4071L20.1934 36.6936L20.5139 36.5869L20.0866 35.4136ZM21.6892 35.4136L21.2619 36.5869L21.5824 36.6936L21.3687 37.1202H22.0098L21.9029 36.6936L22.2235 36.5869L21.6892 35.4136ZM20.9413 36.8002L20.4071 37.9736L20.7276 38.0802L20.6208 38.5069H21.155L21.0482 38.0802L21.3687 37.9736L20.9413 36.8002Z" fill="#FFC400"/>
</svg>
